<svg width="32" height="32" viewBox="0 0 32 32" fill="none" xmlns="http://www.w3.org/2000/svg">
  <defs>
    <linearGradient id="brand-grad" x1="0" y1="0" x2="32" y2="32" gradientUnits="userSpaceOnUse">
      <stop stop-color="#EA580C" />
      <stop offset="1" stop-color="#DC2626" />
    </linearGradient>
  </defs>
  <path d="M16 4C9.37258 4 4 9.37258 4 16C4 22.6274 9.37258 28 16 28C22.6274 28 28 22.6274 28 16H24C24 20.4183 20.4183 24 16 24C11.5817 24 8 20.4183 8 16C8 11.5817 11.5817 8 16 8V4Z" fill="url(#brand-grad)" />
  <path d="M20 10L24 14L20 18V15H12V13H20V10Z" fill="url(#brand-grad)" />
  <rect x="15" y="14" width="2" height="8" rx="1" fill="url(#brand-grad)" />
</svg>
